<?xml version="1.0" encoding="UTF-8"?> <svg xmlns="http://www.w3.org/2000/svg" width="137" height="40" viewBox="0 0 137 40" fill="none"><path d="M14.3308 14.2976C14.3308 17.8554 12.5021 20.9476 7.04904 20.7814V8.2793C12.3026 8.1463 14.3308 10.7398 14.3308 14.2976ZM20.9476 14.4638C20.9476 7.01579 14.8961 0.964256 7.44805 0.964256H0V39.6342H7.28179V27.9634C15.1953 27.9634 20.9476 21.9119 20.9476 14.4638ZM35.2452 27.3982H31.0889L33.2502 19.9834L35.2452 27.3982ZM38.5702 39.601H46.2843L33.483 0L19.7839 39.601H27.5312L29.1937 33.882H37.0075L38.5702 39.601ZM51.6376 39.5345H69.7922V32.419H59.0856V1.13051H51.6376V39.5345ZM101.214 39.601H108.928L98.9859 0L91.1056 21.4796L83.6243 0L73.2502 39.601H80.9975L84.9543 24.3059L90.9061 39.734L97.4564 24.1397L101.214 39.601ZM118.836 10.9061C118.836 8.4788 120.898 7.6143 122.826 7.6143C124.954 7.6143 126.384 8.31255 127.681 8.91106L127.814 8.97756L129.244 9.64256L129.31 8.44555L129.676 2.42727V2.26101L128.811 1.92851C127.747 1.52951 125.52 0.665004 122.427 0.665004C119.601 0.665004 117.007 1.62926 115.145 3.42477C113.084 5.38653 112.02 8.1463 112.02 11.4381C112.02 13.9651 113.483 17.8886 117.639 21.1804L120.166 23.3084C123.059 25.6692 124.289 26.9327 124.289 28.6949C124.289 31.9202 121.995 33.084 120 33.084C116.974 33.084 114.68 31.4879 114.048 30.9892L112.785 30.0249L112.386 37.9717L112.718 38.2377C114.347 39.4347 116.874 40.0332 120.166 40.0332C123.392 40.0332 126.085 39.0025 128.047 37.074C130.075 35.0457 131.205 31.9867 131.205 28.5287C131.205 24.0732 128.811 21.3134 125.22 18.5869L122.294 16.0598C120.565 14.8628 118.836 12.7348 118.836 10.9061ZM136.16 37.2402C136.16 35.9435 135.229 34.9792 133.998 34.9792C132.768 34.9792 131.837 35.9435 131.837 37.2402C131.837 38.537 132.768 39.5012 133.998 39.5012C135.262 39.5012 136.16 38.537 136.16 37.2402ZM131.438 37.2402C131.438 35.744 132.569 34.6135 133.998 34.6135C135.428 34.6135 136.559 35.744 136.559 37.2402C136.559 38.7365 135.428 39.8337 133.998 39.8337C132.569 39.8337 131.438 38.7365 131.438 37.2402ZM133.5 37.1072H134.098C134.397 37.1072 134.564 36.9742 134.564 36.7082C134.564 36.4422 134.397 36.3092 134.098 36.3092H133.5V37.1072ZM133.965 37.5727H133.5V38.67H132.901V35.8105H134.165C134.497 35.8105 134.73 35.9102 134.896 36.0765C135.062 36.2427 135.162 36.4422 135.162 36.7082C135.162 37.1072 134.963 37.3732 134.597 37.5062L135.295 38.67H134.63L133.965 37.5727Z" fill="url(#paint0_linear_1519_800)"></path><defs><linearGradient id="paint0_linear_1519_800" x1="0" y1="20.0062" x2="136.583" y2="20.0062" gradientUnits="userSpaceOnUse"><stop stop-color="#C5A35A"></stop><stop offset="0.2801" stop-color="#CDAD5E"></stop><stop offset="0.7708" stop-color="#E3C86B"></stop><stop offset="1" stop-color="#EFD772"></stop></linearGradient></defs></svg> 