<?xml version="1.0" encoding="utf-8"?>
<!-- Generator: Adobe Illustrator 24.1.0, SVG Export Plug-In . SVG Version: 6.00 Build 0)  -->
<svg version="1.1" id="Layer_1" xmlns="http://www.w3.org/2000/svg" xmlns:xlink="http://www.w3.org/1999/xlink" x="0px" y="0px"
	 viewBox="0 0 401.9 196.3" style="enable-background:new 0 0 401.9 196.3;" xml:space="preserve">
<style type="text/css">
	.st0{fill:#FFFFFF;}
	.st1{fill:#FFFFFF;stroke:#FFFFFF;stroke-miterlimit:10;}
	.st2{fill:#FFFFFF;stroke:#FFFFFF;stroke-width:1.04;}
</style>
<path class="st0" d="M221.1,107.9v3.2h5.6v4.2h-5.6v3.3h5.9v4.2h-10.9v-19.2H227v4.2H221.1z"/>
<path class="st0" d="M233.1,103.7h6.1l2.9,5l2.9-5h6.1l-6.1,9l7.1,10.3h-6l-4-6.3l-4.4,6.3h-6l7.5-10.3L233.1,103.7z"/>
<path class="st0" d="M257.2,103.7h7.7c4.1,0,7,1.9,7,6.3s-2.5,6.5-6.8,6.5h-2.8v6.4h-5L257.2,103.7z M262.2,112.5h0.9
	c1.8,0,3.6,0,3.6-2.3s-1.6-2.4-3.6-2.4h-0.9V112.5z"/>
<path class="st0" d="M281.9,107.9v3.2h5.6v4.2h-5.6v3.3h5.9v4.2h-10.9v-19.2h10.9v4.2H281.9z"/>
<path class="st0" d="M310.5,122.9h-6.2l-4.7-7.4l0,0v7.4h-5v-19.2h7.5c3.8,0,6.7,1.8,6.7,5.9c0.2,2.6-1.6,4.9-4.2,5.4L310.5,122.9z
	 M299.5,112.3h0.5c1.6,0,3.5-0.3,3.5-2.4s-1.8-2.4-3.5-2.4h-0.5L299.5,112.3z"/>
<path class="st0" d="M320.3,122.9h-5v-19.2h5V122.9z"/>
<path class="st0" d="M332.1,107.9v3.2h5.6v4.2h-5.6v3.3h5.9v4.2h-10.9v-19.2H338v4.2H332.1z"/>
<path class="st0" d="M344.6,103.7h5l9.2,11.8h0v-11.8h5v19.2h-5l-9.2-11.8h0v11.8h-5V103.7z"/>
<path class="st0" d="M384.3,110.1c-1-1.3-2.6-2.1-4.3-2.1c-2.8,0-5.1,2.2-5.1,5c0,0.1,0,0.2,0,0.3c-0.1,2.8,2,5.1,4.8,5.2
	c0.1,0,0.3,0,0.5,0c1.7,0,3.2-0.7,4.3-2v6c-1.4,0.5-2.9,0.8-4.4,0.9c-2.7,0-5.3-1-7.2-2.8c-2-1.9-3.2-4.5-3.1-7.3c0-2.6,1-5.1,2.8-7
	c1.9-2,4.6-3.1,7.3-3.1c1.6,0,3.1,0.4,4.6,1L384.3,110.1z"/>
<path class="st0" d="M395.9,107.9v3.2h5.6v4.2h-5.6v3.3h5.9v4.2h-10.9v-19.2h10.9v4.2H395.9z"/>
<path class="st0" d="M228.4,83.7v-7.4h5v19.2h-5v-7.9h-7.2v7.9h-5V76.3h5v7.4H228.4z"/>
<path class="st0" d="M260.5,85.5c-0.2,5.9-5.1,10.5-11,10.3c-5.6-0.2-10.1-4.7-10.3-10.3c0-5.8,5.1-9.9,10.6-9.9
	S260.5,79.7,260.5,85.5z M244.4,85.5c-0.1,3,2.2,5.5,5.2,5.7c3,0.1,5.5-2.2,5.7-5.2c0-0.2,0-0.3,0-0.5c-0.2-3-2.8-5.3-5.8-5
	C246.7,80.7,244.6,82.8,244.4,85.5z"/>
<path class="st0" d="M274,95.5h-5v-15h-4.1v-4.2h13.3v4.2H274V95.5z"/>
<path class="st0" d="M289,80.5v3.2h5.6v4.2H289v3.3h6v4.2h-11V76.3h11v4.2L289,80.5z"/>
<path class="st0" d="M307.2,91.3h6v4.2h-11V76.3h5V91.3z"/>
<path class="st0" d="M323.2,79.6h3.6v4.4h4.4v3.6h-4.4v4.4h-3.6v-4.4h-4.4v-3.6h4.4L323.2,79.6z"/>
<path class="st0" d="M196.3,196.3H0V0h196.3V196.3z M4.1,192.2h188.1V4.1H4.1V192.2z"/>
<path class="st1" d="M176.2,122.9c0-0.7,0.6-1.3,1.3-1.3c0.7,0,1.3,0.6,1.3,1.3c0,0.7-0.6,1.3-1.3,1.3c0,0,0,0,0,0
	C176.8,124.3,176.2,123.7,176.2,122.9C176.2,123,176.2,122.9,176.2,122.9z M178.6,122.9c0-0.6-0.5-1.1-1.1-1.1
	c-0.6,0-1.1,0.5-1.1,1.1s0.5,1.1,1.1,1.1c0,0,0,0,0,0C178.1,124.1,178.6,123.6,178.6,122.9C178.6,122.9,178.6,122.9,178.6,122.9z
	 M178.1,123.7h-0.2l-0.4-0.7h-0.2v0.7H177v-1.4h0.6c0.3,0,0.5,0.1,0.5,0.4s-0.2,0.4-0.4,0.4L178.1,123.7z M177.4,122.8
	c0.2,0,0.5,0,0.5-0.2s-0.2-0.2-0.4-0.2h-0.4v0.4H177.4z"/>
<path class="st2" d="M21.6,80.5H20V68.8h-3.1v-1.5h7.9v1.5h-3.1V80.5z"/>
<path class="st2" d="M39.4,72.6v-5.3H41v13.2h-1.6v-6.3h-6.3v6.3h-1.6V67.3h1.6v5.3H39.4z"/>
<path class="st2" d="M49,67.3h7.1v1.5h-5.4v3.7H56V74h-5.3v5h5.4v1.5H49V67.3z"/>
<path class="st2" d="M64.2,127.6H60V94.1h4.2L64.2,127.6z"/>
<path class="st2" d="M90.3,92.5l25.2,26.4V94.1h4.2V129l-25.2-26.4v25h-4.2V92.5z"/>
<path class="st2" d="M172.1,127.6l-2.9-2.6c-7.9,5.5-18.7,3.5-24.2-4.4c-5.5-7.9-3.5-18.7,4.4-24.2c7.9-5.5,18.7-3.5,24.2,4.4
	c1.9,2.8,3,6,3.1,9.4c0.2,4.6-1.5,9.1-4.7,12.4l5.4,5L172.1,127.6z M169,119.9c5.1-5.4,4.8-13.9-0.6-19c-5.4-5.1-13.9-4.8-19,0.6
	c-2.5,2.7-3.8,6.2-3.6,9.9c0.2,7.4,6.4,13.3,13.9,13.1c0,0,0,0,0,0c2.4-0.1,4.7-0.9,6.7-2.2l-7.2-6.6v-4.8L169,119.9z"/>
<path class="st2" d="M17,94h4.2v29.8h18.9v3.8H17V94z"/>
</svg>
