<?xml version="1.0" encoding="utf-8"?>
<!-- Generator: Adobe Illustrator 24.0.3, SVG Export Plug-In . SVG Version: 6.00 Build 0)  -->
<svg version="1.1" id="Layer_1" xmlns="http://www.w3.org/2000/svg" xmlns:xlink="http://www.w3.org/1999/xlink" x="0px" y="0px"
	 viewBox="0 0 504 211.3" style="enable-background:new 0 0 504 211.3;" xml:space="preserve">
<style type="text/css">
	.st0{fill:#FFFFFF;}
</style>
<title>flamingo-lasvegas-white-logo</title>
<path class="st0" d="M3.5,36.4c6-4.3,36.1-22.1,68.8-31.2c22-6.1,47.9-9.1,60.5,5.2s14,35.8-4.6,62.8c0.9,6.3-0.6,6.6-4.9,7.5
	c-13.8,23.5-58.2,67.1-86,86.6c-3,2.1-7.2,2-11.2,1.7s-9.1-2.8-4-7.2c24.4-20.6,57.1-53.3,67.7-72.8c2.1-3.8,1.2-4.9-1.4-4.3
	s-25,3.4-32.7,2.9s-9.7-1.2-13.2-4.9s-5.2-6,0.9-7.5s48.2-9.2,54.5-10.6s9.5-1.7,12.3-8.6c2-4.7,9.5-16.1,2.9-26.1
	s-20.9-7.5-31.5-5.7c-7.1,1.1-42.7,12-60.5,22.4c-4.1,2.4-6.3,2-14.3-1.7C-1,41.1-2,40.4,3.5,36.4"/>
<path class="st0" d="M174.7,32.1c5.2-4.3,10.3-4.9,13.2,2.3s1.1,10,0.9,12.6c-0.5,4.4-2.2,8.5-4.9,12c-3.7,5.2-48.2,53.6-55.1,63.4
	s-11.8,18.4-12.6,21.5s-0.9,6.9,4.9,3.1c6.3-4.1,14.3-13.5,18.1-16.6c4.3-6,13.5-17.8,23.2-24.1s21.9-12.7,31-4
	c5.7,5.4,0,15.2-5.2,18.4c4.6,7.7,4,12-0.6,14.3c-1.7,3.7-0.6,4.9,2.6,2.3s13.8-10.9,20.9-19.8c2.4-3,7.3-5,9.5,2
	c1.1,3.7,0.3,6.9,4.9,3.4c4-3,5.6-8.3,10.6-4.6c2.3,1.7,2.9,6.9,2.9,8s0.1,2.5,2.9,0.9c3.4-2,6-4.3,7.7-5.2s4.3-3.5,7.4,1.7
	c2.6,4.3,2.6,6-0.3,8.3c-2.3,1.9-4.3,4.1-6,6.6c-1.4,2-3.1,6.5,1.4,4c6.3-3.4,29.2-24.9,31.8-28.1s5.4-3.2,7.7,0.9s2.9,8.6,0,10.9
	s-7.2,8.6-8.6,10.9c-1.7,2.8-1.4,4.3,2.9,2s19.1-14.6,23.7-18.6s6.5-4.8,8.6-1.6c1.1,1.7,2.7,5.9,2.6,7.6c-0.3,4.3,2,2.6,3.7,1.1
	s5.3-4,8.3-6c3.4-2.3,5.5-2.2,7.5,0.9c2.9,4.6,2.6,5.5,0,8s-5.5,5-7.2,8.4c-1.3,2.6-1.7,6,1.7,3.7s9.8-7.2,12.3-9.2
	c3.5-5.1,7.8-12.3,18.1-18.6s22.2-9.9,27.3-2.8c2.9,4,1.4,10.6-0.9,13.2s-6.6,8.1-12-3.4c-7.5,3.2-12.1,9.3-15.2,13.7
	c-2,2.9-2,5.7,3.2,4c4.9-1.8,9.4-4.4,13.5-7.7c3.4-3.2,7-1.4,7.2,1.8c0.3,4.3,0.8,9.1,0.8,9.1s6.9-4.9,10-4.9
	c4.5-4.6,9.3-8.9,14.3-12.8c6.2-4.8,12.9-5.4,16.4-3.7s3.1,5.4,2.3,8c12.9-1.4,46.5-3.2,55.1-3.2s11.2,2.3,14.3,6.9
	c3.8,5.5,4,11.3-5.7,9.2c-21.2-4.6-48.8-1.7-64.5,1.1c-3,8.8-8.7,16.4-16.3,21.8c-6,4.3-22.4,5.7-21.5-14c0.1-3.2-2.9-0.9-4.6,0.6
	c-12.9,10.7-38.4,43.3-42.7,55c-2.1,5.7-3.4,5.4-5.5,2.6s-5.2-6.6-6-10.6c-0.9-4.2-0.3-8,3.1-13.2s19-25.7,21.5-28.4
	c2.2-2.4,0.6-4.6-2-3.7c-4.4,1.5-11.5-0.6-12.6-9.8c-4.9,3.1-10,8.9-16.4,11.8c-5.2,2.4-11.9,1.4-13.8-6.9c-0.9-3.7-0.7-4.5-4.6-0.6
	c-1.4,1.4-7.4,6.3-10,9.2c-1.2,1.3-2.6,2.6-4.8,0.1c-2.4-3-3.8-6.6-4.1-10.4c-3.1,2.9-6.6,6.3-13.2,8c-5.9,1.5-10.6,0.6-12.6-10.6
	c-5.5,4-14.3,11.2-18.4,13.8s-12.9,3.1-12.9-8l-1.1-1.7c-3.7,0.6-7.2,6.6-10.3,10.3c-1.7,2-4.9,5.7-9.2-0.9
	c-2.4-2.6-2.1-7.3-2.3-9.2c-4.3,1.5-6.6,6-9.8,10.8c-2.7,4.1-7.7,1.4-8.9-8.5c-0.8,0.3-1.7,0.3-2.6,0c-3.5,3.8-7.5,7.1-11.8,10
	c-4.6,2.9-11.8,0-12.6-10.9c-3.4,2.9-7.2,4.9-12.6,8c-5.8,3.1-13,0.9-16.1-4.8c-0.3-0.6-0.6-1.3-0.8-2c-5.1,4.4-10.4,10.7-20.1,16.9
	c-4.1,2.7-22.4-1.1-18.1-28.4c2.3-14.6,17.8-35.3,23.8-43.6C128.5,86.6,154.1,49,174.7,32.1 M414.7,139.3c-1.6,1.6-2.9,6.3-2.9,8.6
	c0,2.9,2.3,4,5.2,1.4s2.2-6.4,2.6-8C420.1,138.8,417.2,136.8,414.7,139.3 M183,119c0.6-3.7-2-7.2-5.4-4.9
	c-6.3,4.3-16.6,18.6-18.4,22.4s-0.8,5.3,2.6,3.2C169.8,134.5,177.8,124.4,183,119"/>
<path class="st0" d="M301.5,84.5c-3.4,1.9-8.2,6.8-8.6,12.5s2.5,5.7,5.9,7.7s6.1,1.6,9.1-0.4s7.5-6.6,6.3-12s-4.3-9.1-6.6-9.1
	C305.5,83,303.4,83.5,301.5,84.5"/>
<path class="st0" d="M436.4,153.1c-1.6,0-2.8-1.2-2.9-2.7c0-1.6,1.2-2.8,2.7-2.9c1.6,0,2.8,1.2,2.9,2.7c0,0,0,0.1,0,0.1
	c0.1,1.5-1.1,2.8-2.6,2.8C436.5,153.1,436.5,153.1,436.4,153.1 M436.4,153.5c1.8,0,3.2-1.5,3.2-3.2c0-1.8-1.5-3.2-3.2-3.2
	c-1.8,0-3.2,1.4-3.2,3.2C433.2,152.1,434.6,153.5,436.4,153.5C436.4,153.5,436.4,153.5,436.4,153.5 M436.9,150.4
	c0.6,0,1.1-0.3,1.1-1s-0.3-1-1.3-1h-1.6v3.6h0.5v-1.7h0.8l1,1.7h0.5L436.9,150.4z M435.7,150.1v-1.3h1c0.5,0,0.9,0.1,0.9,0.6
	c0,0.7-0.8,0.6-1.3,0.6H435.7z"/>
<path class="st0" d="M161.1,199.3h4.3v2.7h-7.4v-15.8h3.1V199.3z"/>
<path class="st0" d="M176.5,198.7l-1.3,3.3H172l6.1-16.2h2.4l6,16.2h-3.3l-1.2-3.3H176.5z M179.2,190.4L179.2,190.4l-1.7,5.7h3.7
	L179.2,190.4z"/>
<path class="st0" d="M200.4,189.7c-0.5-0.8-1.4-1.3-2.4-1.3c-1,0-1.9,0.7-1.9,1.8c0,2.7,6.3,1.6,6.3,6.8c0,3.2-2,5.4-5.2,5.4
	c-2.1,0-3.9-1.2-4.9-3.1l2-1.9c0.4,1.3,1.5,2.2,2.8,2.3c1.2-0.1,2.1-1,2-2.2c0,0,0,0,0-0.1c0-1.6-1.5-2.1-2.7-2.6
	c-2-0.8-3.5-1.9-3.5-4.3c-0.1-2.5,1.9-4.7,4.5-4.7c0,0,0.1,0,0.1,0c1.6,0,3.1,0.7,4.3,1.8L200.4,189.7z"/>
<path class="st0" d="M223.6,196.9L223.6,196.9l3.5-10.6h3.3l-6.1,16.2h-1.8l-6-16.2h3.3L223.6,196.9z"/>
<path class="st0" d="M239.7,188.9v3.5h4.9v2.7h-4.9v4.2h5.1v2.7h-8.2v-15.8h8.2v2.7H239.7z"/>
<path class="st0" d="M266.8,193.6v0.4c0,4.4-2.3,8.4-7.2,8.4c-4.6,0-7.5-3.9-7.5-8.2s3-8.4,7.7-8.4c2.6-0.1,5.1,1.4,6.2,3.8
	l-2.7,1.5c-0.6-1.5-2-2.5-3.6-2.5c-3,0-4.4,3-4.4,5.6s1.5,5.5,4.5,5.5c2-0.1,3.5-1.6,3.6-3.6H260v-2.5H266.8z"/>
<path class="st0" d="M276.8,198.7l-1.3,3.3h-3.2l6.1-16.2h2.4l6,16.2h-3.3l-1.2-3.3H276.8z M279.5,190.4L279.5,190.4l-1.8,5.7h3.7
	L279.5,190.4z"/>
<path class="st0" d="M301.2,189.7c-0.5-0.8-1.4-1.3-2.4-1.3c-1,0-1.9,0.7-1.9,1.8c0,2.7,6.2,1.6,6.2,6.8c0,3.2-2,5.4-5.2,5.4
	c-2.1-0.1-3.9-1.2-4.9-3.1l2-1.9c0.4,1.3,1.5,2.2,2.9,2.3c1.2-0.1,2.1-1,2-2.2c0,0,0,0,0-0.1c0-1.6-1.5-2.1-2.7-2.6
	c-2-0.8-3.5-1.9-3.5-4.3c-0.1-2.5,1.9-4.7,4.5-4.7c0,0,0.1,0,0.1,0c1.6,0,3.1,0.7,4.3,1.8L301.2,189.7z"/>
</svg>
