<svg version="1.1" id="Layer_1" xmlns="http://www.w3.org/2000/svg" xmlns:xlink="http://www.w3.org/1999/xlink" x="0px" y="0px"
	 viewBox="0 0 229.9 205.6" style="enable-background:new 0 0 229.9 205.6;" xml:space="preserve">
<style type="text/css">
	.st0{fill:#FFFFFF;}
</style>
<polygon class="st0" points="39.6,205.2 47.4,205.2 47.4,202.3 42.6,202.3 42.6,170.8 39.6,170.8 "/>
<path class="st0" d="M65.5,196.1h-5l2.5-13.4L65.5,196.1z M57,198.8l-1.3,6.3h3l1.3-6.3h5.8l1.2,6.3h3l-6.3-34.6h-0.9L57.5,196h-1.9
	v2.8L57,198.8z"/>
<path class="st0" d="M78.9,202.9l1.3,2.7c4.2-1.2,7.9-4.6,7.9-9.1c0-3.2-1.4-5.8-4-9.5c-2.2-3-3.7-5.5-3.7-7.3
	c0-3.4,2.7-5.1,5.9-6.5l-1.2-2.7c-4,1.6-7.6,4.5-7.6,8.8c0,3.2,0.8,5.1,4,9.5c1.7,2.3,3.6,5.2,3.6,7.5
	C85.1,199.9,81.6,202.1,78.9,202.9"/>
<polygon class="st0" points="116.8,170.8 123.4,205.6 124.6,205.6 131.2,170.8 128.5,170.8 124,194.6 119.8,170.8 "/>
<polygon class="st0" points="141.5,205.1 149.3,205.1 149.3,202.3 144.5,202.3 144.5,190.4 149.6,190.4 149.6,187.6 144.5,187.6 
	144.5,173.6 149.4,173.6 149.1,170.8 141.5,170.8 141.5,187.6 139.5,187.6 139.5,190.4 141.5,190.4 "/>
<path class="st0" d="M161.9,188c0-8.6,1.4-14.7,4.2-14.7c0.9,0.1,1.7,0.5,2.2,1.2l1.8-2.4c-1-1.2-2.6-1.8-4.1-1.8
	c-5.1,0-7.3,6.5-7.3,17.6c0,11.2,1.4,17.6,7.6,17.6c2,0,3.8-0.7,5.2-2.1v-16.5h-6.6v2.9h3.7v12.3c-0.8,0.5-1.7,0.7-2.6,0.7
	C162.7,202.7,161.9,197.5,161.9,188"/>
<path class="st0" d="M190,196.1h-5l2.6-13.4L190,196.1z M181.5,198.8l-1.3,6.3h3l1.3-6.3h5.8l1.2,6.3h3l-6.3-34.6h-0.9l-5.1,25.5
	h-1.9v2.8L181.5,198.8z"/>
<path class="st0" d="M203.4,202.9l1.3,2.7c4.3-1.2,7.9-4.6,7.9-9.1c0-3.2-1.4-5.8-4-9.5c-2.2-3-3.7-5.5-3.7-7.3
	c0-3.4,2.7-5.1,5.9-6.5l-1.2-2.7c-3.9,1.6-7.6,4.5-7.6,8.8c0,3.2,0.8,5.1,4,9.5c1.7,2.3,3.6,5.2,3.6,7.5
	C209.6,199.9,206.1,202.1,203.4,202.9"/>
<path class="st0" d="M179.4,18c0.7,7,5,14.9,0.5,21.8c-4.2,2.9-7.6,8.6-12.7,7.9l-1.5-0.2c-0.5-0.2-0.9-0.6-1.2-1.1
	c-0.5-0.4-0.7-1.5-1.1-2.1c-0.3-11.8,14.1-16.8,12.9-29.1C178.2,15.1,178.7,16.6,179.4,18"/>
<path class="st0" d="M222.5,65.9c2.6,8.6-5,14.2-10.1,19.9c-3.4,2.2-6.6,2.6-10.2,0.5c-0.9-0.6-1.8-3.1-1.2-4.2
	c0.6-1.3,1.6-3.5,3.3-4.3c2.3-0.4,4.3,1.2,6.7,0.5c2.5-1.8,4.3-4.9,4.3-7.2c-4.6-2.3-11.8,3.1-15.9,7.3
	c-6.5,6.5-14.5,14.4-10.6,24.1c4.6,8,14.6,17.8,11.3,25.2c-5,7.4-11,14.1-17.9,19.7c-2.7,2.3-5.6,4.4-8.6,6.2c-3.7,2.1-8,3.2-12.3,3
	c-5.3-0.8-7.1-3.3-8.1-5.3c-0.2-6.9,2.8-14.4,7.2-20.2c1.6-1.1,3.6-1.3,5.4-0.7c1.1,0.8,2.6,1.3,2.8,2.8c-1.3,1.7-2.9,3.6-2.9,6.1
	c-0.7,2.9-0.8,7.9,1,8.1c7.4-2.4,15.4-9.3,18.6-16.8c2.9-9-1.2-18.7-7.1-26.2c-3.4-5.3-1.8-12.9,1.1-17.9c4-6.4,9.8-10.7,15.3-15.8
	c6.3-4.2,12.5-8.7,20-10C218.2,60.4,221.1,63.2,222.5,65.9"/>
<path class="st0" d="M133.5,77.9c2.9,0.9,3.4,4.1,4.6,6.3c0.3,7.7-2.5,14.9-3.2,22.5c0.1,1.4,1.6,2.9,2.9,3.4c3.4,1,6.2-0.1,8.6,2.3
	c0.3,1.6-1.3,2.4-2.1,3.4c-5.4,1.3-11.2,3.5-16.2-0.4c-2.3-3.9-1.3-8.9-1.6-13.4l1.4-14.8c-0.1-1.6-1.7-2-3-2.4
	c-4.7-2.5-6.7,3.2-9.6,5.6c-5.7,7.9-9.2,21.5-13.6,25.5l-22.3,19.5c-2,0.9-3.7,1.8-5.8,0.7c-2.5-4.7-2.2-10.4-3.9-15.4
	c0,0-0.6,0-0.8,0.9c-2.8,6.7-3.3,14.6-7.5,20.7c0,0.2-0.1,0.4-0.2,0.6c-1.9,2.2-3.9,6.1-7,6.3c-0.7,0.7-2,0.9-3.2,1.4
	c-1.3,0.6-2.7-0.3-4-1.7c-4.2-6-3.7-13.8-3.8-21.2c1.4-14.3,2.8-28.6,14.4-38.2c3.5-3.1,7.1-5.9,11.5-6.7c2.3,0.8,5.2,2.9,6,5.6
	c0,3.1-4.3,5.2-6.6,6.3c-0.3,0.1-0.5,0.2-1,0.4l-0.4,0.1c-3.2-0.8-6.6,1.4-8.5,4.3c-5.4,8.4-5.7,20-5.1,30.3
	c1.4,0.7,1.7,2.6,2.5,3.8c5.7-7.7,3-19.3,10.3-26.3c1.8-1.6,4.3-2,6.6-3c1.7,0.2,3.4,0.5,4.1,2.4c0.9,5.1,0.3,10.7,2.7,15.2
	c15.8-11.8,27.8-26.9,34.8-43.8c3.5-3.3,8.8-1.5,13.6-1.2L133.5,77.9z"/>
<path class="st0" d="M169.3,86.1c-0.6,4.3-5.3,6.8-5.9,11.1c-2.8,7.4-1.7,15.1-6,21.8c-4,0.3-2.5-4.4-4-6.5
	c-0.5-9.7,4.7-17.4,2.8-26.9c0.1-2.7,2.8-3.9,4.9-4.9C164.2,81.7,167.5,82.9,169.3,86.1"/>
<path class="st0" d="M59.9,0.2c-8.5,1.2-15.1,6.2-21.5,11l-2.3,1.7L36.1,13c-10.6,10.1-18,21.9-24.6,33.2
	c-4.2,8.4-7.4,17.4-9.2,26.6c-1.4,9-2.2,18.1-2.2,27.3c0,4.3,0.2,8.5,0.7,12.8c0,0.2,1.7,10,1.7,10c2.1,12.2,4.2,24.8,9,36.3
	l0.1,0.3l0.2,0.2c0.5,0.9,0.9,1.9,1.2,3c0.8,2.5,2.1,6.8,6.5,6.2l0.6-0.1l1.1-0.9c1.4-0.9,2.7-2.1,3.6-3.6c0.6-0.8,0.9-1.7,0.9-2.6
	c-0.1-1.3-0.4-2.5-1.1-3.6l-0.5-1.1c-1.2-4.1-2.7-8.2-4.5-12.1c-1.7-3.8-3.1-7.6-4.3-11.6c-0.1-0.4-1.7-9.3-1.7-9.3
	c-1.2-6-2.4-11.8-2.5-17.8c-0.1-2.4-0.2-4.8-0.2-7.1c0-16,2.8-31.7,8-45.1c6-11.8,11.3-20.6,17.4-28.3c6.1-7,13.1-12.3,20.2-15
	L59,10c3.5-1.1,5.2-1.4,6.4,0.3c0.9,1.5,1.3,3.3,1.2,5.1c-0.1,3.3-0.8,6.5-2.1,9.5c-3.8,9.5-8.9,18.7-13.7,27.4l-0.1,0.3l-1.7,3
	c-0.9,1.2-1.6,2.6-2.2,4L42.2,66c-3.5,5-7.2,10.1-10.4,15.4c0-0.1-2.6,4-2.6,4c-2.4,3.9-5,7.6-8,11l-0.1,0.1L21,96.8l-2.5,3.5
	c-2.2,2.9-4.8,6.1-5,10.4v0.3l0.1,0.3c0.5,2,2.4,3.3,4.4,3.2h0.6l0.9-0.6c4.6-2.9,9.9-6.2,12.9-11.2l0.1-0.2l0.1-0.2
	c3.6-9.9,9.7-19.1,15.5-27.9c3.3-5.2,6.8-10.4,9.8-15.8l0.5-1c5.5-10.2,11.2-20.7,15.3-31.8C76,17.4,76,11.2,73.9,6.6l-0.1-0.2
	l-0.1-0.1C70.8,1.8,65.4-0.7,59.9,0.2"/>
<path class="st0" d="M224.8,60.9h0.8c0.2,0,0.5,0,0.7,0.1c0.1,0,0.2,0.1,0.3,0.2c0.2,0.3,0.1,0.6-0.1,0.8c-0.3,0.1-0.5,0.2-0.8,0.2
	h-0.9L224.8,60.9z M224.8,64.7v-1.8h0.4c0.2,0,0.4,0,0.6,0.1c0.3,0.3,0.5,0.6,0.7,1l0.4,0.7h0.8l-0.5-0.8c-0.2-0.3-0.4-0.6-0.6-0.8
	c-0.1-0.1-0.2-0.2-0.4-0.2c0.3,0,0.7-0.2,0.9-0.4c0.2-0.2,0.3-0.5,0.3-0.8c0-0.2-0.1-0.4-0.2-0.6c-0.1-0.2-0.3-0.3-0.5-0.4
	c-0.4-0.1-0.7-0.1-1.1-0.1h-1.5v4.3L224.8,64.7z M227.5,59.5c0.5,0.3,1,0.7,1.2,1.2c0.3,0.5,0.4,1.1,0.4,1.7c0,0.6-0.1,1.1-0.4,1.7
	c-0.3,0.5-0.7,0.9-1.2,1.2c-1,0.6-2.3,0.6-3.3,0c-0.5-0.3-0.9-0.7-1.2-1.2c-0.3-0.5-0.4-1.1-0.4-1.7c0-0.6,0.2-1.2,0.4-1.7
	c0.3-0.5,0.7-0.9,1.2-1.2C225.3,59,226.5,59,227.5,59.5 M223.9,59c-0.6,0.3-1.2,0.9-1.5,1.5c-0.7,1.2-0.7,2.8,0,4
	c0.3,0.6,0.9,1.1,1.5,1.5c1.2,0.7,2.8,0.7,4,0c0.6-0.3,1.1-0.9,1.5-1.5c0.3-0.6,0.5-1.3,0.5-2c0-0.7-0.2-1.4-0.5-2
	c-0.3-0.6-0.9-1.1-1.5-1.5C226.6,58.3,225.1,58.3,223.9,59"/>
</svg>
