<?xml version="1.0" encoding="utf-8"?>
<!-- Generator: Adobe Illustrator 27.2.0, SVG Export Plug-In . SVG Version: 6.00 Build 0)  -->
<svg version="1.1" id="Layer_1" xmlns="http://www.w3.org/2000/svg" xmlns:xlink="http://www.w3.org/1999/xlink" x="0px" y="0px"
	 viewBox="0 0 285.8 151.6" style="enable-background:new 0 0 285.8 151.6;" xml:space="preserve">
<style type="text/css">
	.st0{fill:#FFFFFF;}
</style>
<g id="white">
	<g>
		<g>
			<g>
				<path class="st0" d="M75.8,151.6C34,151.6,0,117.6,0,75.8S34,0,75.8,0s75.8,34,75.8,75.8S117.6,151.6,75.8,151.6z M75.8,5.2
					C36.9,5.2,5.2,36.9,5.2,75.8s31.7,70.6,70.6,70.6s70.6-31.7,70.6-70.6C146.4,36.9,114.8,5.2,75.8,5.2z"/>
			</g>
		</g>
		<g>
			<g>
				<g>
					<path class="st0" d="M43.6,48.9c-7.1,0-13.4,2.4-18.3,6.9c-5.7,5.3-9.1,13.3-9.1,21.5c0,13,8.7,21.4,22.1,21.4
						c4.8,0,10-1.1,13.9-2.9l0.5-0.2l3.8-21.9H39.2l-1,5.8h11.2l-2.1,11.9c-2.6,1-5.7,1.5-8.8,1.5c-10,0-16.3-6.1-16.3-15.9
						c0-6.4,2.7-12.8,7.2-17c3.7-3.4,8.7-5.2,13.9-5.2c6.1,0,10.7,2.4,12.9,3.8l1.4,0.9l1.1-6.5l-0.7-0.4
						C53.1,50.1,48.5,48.9,43.6,48.9z"/>
				</g>
			</g>
			<g>
				<g>
					<path class="st0" d="M80.8,48.9c-4.6,0-8.5,1.4-11.3,4.2c-2.8,2.6-4.3,6.2-4.3,10.1c0,7.6,5.8,10.3,11.5,12.8
						c5.3,2.4,8.8,4,8.8,8.3c0,2.5-1,4.7-2.8,6.2c-1.7,1.4-4.3,2.2-7.1,2.2c-4.4,0-9.4-2.1-12.9-5.4L61.2,86L60,93.1l0.5,0.4
						c4.1,3.2,9.6,5.1,15,5.1c4.4,0,8.1-1.2,11-3.7c3.3-2.8,5.1-6.7,5.1-11c0-7.9-6.1-10.7-11.6-13.1l-0.1,0
						c-5.2-2.3-8.7-3.9-8.7-8.1c0-2.2,0.9-4.3,2.5-5.7c1.6-1.5,4-2.3,6.7-2.3c3.9,0,8.3,1.7,11.8,4.5l1.5,1.2l1.2-6.8l-0.6-0.4
						C90.6,50.5,85.6,48.9,80.8,48.9z"/>
				</g>
			</g>
			<g>
				<g>
					<path class="st0" d="M129.2,72.8L129.2,72.8c2.8-2.7,4.4-6.4,4.4-10.3c0-3.7-1.4-7-3.9-9.2c-2.9-2.5-6.9-3.7-12.9-3.7H104
						L95.4,98h6.1l3.6-20.7h8.7l9.8,20.7h6.8l-10.1-21.1C124,76.3,126.9,75,129.2,72.8z M109.1,55.4h7.3c4.2,0,6.9,0.7,8.8,2.2
						c1.5,1.3,2.3,3.1,2.3,5.3c0,2.3-0.9,4.4-2.5,6c-2,2-4.9,2.9-9.4,2.9h-9.3L109.1,55.4z"/>
				</g>
			</g>
		</g>
	</g>
	<rect x="167.9" y="49.5" class="st0" width="117.8" height="2.7"/>
	<rect x="167.9" y="100.7" class="st0" width="117.9" height="2.7"/>
	<g>
		<path class="st0" d="M168.4,24.8L168.4,24.8c0-5.7,4.3-10.5,10.4-10.5c3.5,0,5.7,1,7.8,2.7l-2.2,2.7c-1.6-1.3-3.1-2.2-5.7-2.2
			c-3.7,0-6.6,3.3-6.6,7.1v0.1c0,4.2,2.7,7.2,6.9,7.2c1.9,0,3.6-0.6,4.9-1.5v-3.8h-5.2v-3.1h8.6v8.5c-2,1.7-4.9,3.2-8.4,3.2
			C172.6,35.2,168.4,30.7,168.4,24.8z"/>
		<path class="st0" d="M194.1,14.7h9c2.5,0,4.5,0.8,5.8,2c1.1,1.1,1.7,2.6,1.7,4.4v0.1c0,3.3-2,5.3-4.8,6.1l5.5,7.7H207l-5-7H202
			h-4.4v7h-3.6V14.7z M202.8,24.7c2.5,0,4.2-1.3,4.2-3.4v-0.1c0-2.2-1.6-3.3-4.2-3.3h-5.2v6.8H202.8z"/>
		<path class="st0" d="M224.2,14.5h3.3l8.9,20.4h-3.8l-2-4.9H221l-2.1,4.9h-3.6L224.2,14.5z M229.3,26.9l-3.5-8.1l-3.5,8.1H229.3z"
			/>
		<path class="st0" d="M241.9,14.7h3.3l10.8,14v-14h3.5v20.2h-3l-11.1-14.4v14.4h-3.5V14.7z"/>
		<path class="st0" d="M266.9,14.7h7.5c6.4,0,10.8,4.4,10.8,10.1v0.1c0,5.7-4.4,10.1-10.8,10.1h-7.5V14.7z M274.4,31.7
			c4.2,0,7-2.9,7-6.8v-0.1c0-4-2.8-6.9-7-6.9h-4v13.8L274.4,31.7L274.4,31.7z"/>
	</g>
	<g>
		<path class="st0" d="M167.8,83l2.1-2.5c1.9,1.7,3.9,2.6,6.4,2.6c2.2,0,3.6-1,3.6-2.5v-0.1c0-1.4-0.8-2.2-4.6-3.1
			c-4.3-1-6.7-2.3-6.7-6v-0.1c0-3.5,2.9-5.9,6.9-5.9c2.9,0,5.3,0.9,7.3,2.5l-1.9,2.7c-1.8-1.4-3.6-2.1-5.5-2.1
			c-2.1,0-3.3,1.1-3.3,2.4V71c0,1.6,0.9,2.2,4.8,3.2c4.3,1,6.5,2.6,6.5,5.9v0.1c0,3.8-3,6-7.2,6C173.1,86.2,170.2,85.1,167.8,83z"/>
		<path class="st0" d="M189.5,65.7h3.6v20.2h-3.6V65.7z"/>
		<path class="st0" d="M200.2,65.7h15v3.2h-11.4v5.3h10.1v3.2h-10.1v5.4h11.6v3.2h-15.1V65.7z"/>
		<path class="st0" d="M221.3,65.7h9c2.5,0,4.5,0.8,5.8,2c1.1,1.1,1.7,2.6,1.7,4.4v0.1c0,3.3-2,5.3-4.8,6.1l5.5,7.7h-4.2l-5-7.1
			h-0.1h-4.4v7.1h-3.6L221.3,65.7L221.3,65.7z M230,75.7c2.5,0,4.2-1.3,4.2-3.4v-0.1c0-2.2-1.6-3.3-4.2-3.3h-5.2v6.8
			C224.8,75.7,230,75.7,230,75.7z"/>
		<path class="st0" d="M243.8,65.7h9c2.5,0,4.5,0.8,5.8,2c1.1,1.1,1.7,2.6,1.7,4.4v0.1c0,3.3-2,5.3-4.8,6.1l5.5,7.7h-4.2l-5-7.1
			h-0.1h-4.4v7.1h-3.5L243.8,65.7L243.8,65.7z M252.6,75.7c2.5,0,4.2-1.3,4.2-3.4v-0.1c0-2.2-1.6-3.3-4.2-3.3h-5.2v6.8
			C247.4,75.7,252.6,75.7,252.6,75.7z"/>
		<path class="st0" d="M273.6,65.5h3.3l8.9,20.4H282l-2-4.9h-9.6l-2.1,4.9h-3.6L273.6,65.5z M278.7,77.9l-3.5-8.1l-3.5,8.1H278.7z"
			/>
	</g>
	<path class="st0" d="M167.9,116.2h8.9c2.5,0,4.5,0.7,5.7,2c1.1,1.1,1.6,2.6,1.6,4.3v0.1c0,3.3-2,5.2-4.8,6l5.4,7.5h-4.1l-4.9-6.9
		h-0.1h-4.3v6.9h-3.5L167.9,116.2L167.9,116.2z M176.6,126.1c2.5,0,4.1-1.3,4.1-3.3v-0.1c0-2.1-1.5-3.3-4.1-3.3h-5.1v6.7
		L176.6,126.1L176.6,126.1z"/>
	<path class="st0" d="M188.2,116.2h14.8v3.1h-11.2v5.2h10v3.1h-10v5.3h11.4v3.1h-14.9L188.2,116.2L188.2,116.2z"/>
	<path class="st0" d="M206,133.2l2.1-2.5c1.9,1.6,3.8,2.6,6.3,2.6c2.2,0,3.5-1,3.5-2.5v-0.1c0-1.4-0.8-2.2-4.5-3
		c-4.2-1-6.6-2.3-6.6-5.9v-0.1c0-3.4,2.8-5.8,6.8-5.8c2.9,0,5.2,0.9,7.2,2.5l-1.9,2.6c-1.8-1.3-3.6-2.1-5.4-2.1
		c-2.1,0-3.2,1.1-3.2,2.4v0.1c0,1.5,0.9,2.2,4.7,3.1c4.2,1,6.4,2.5,6.4,5.8v0.1c0,3.7-2.9,5.9-7.1,5.9
		C211.2,136.4,208.4,135.3,206,133.2z"/>
	<path class="st0" d="M224,126.2L224,126.2c0-5.7,4.3-10.3,10.4-10.3s10.4,4.6,10.4,10.2v0.1c0,5.6-4.3,10.3-10.4,10.3
		C228.2,136.4,224,131.8,224,126.2z M241.1,126.2L241.1,126.2c0-3.9-2.8-7.1-6.8-7.1s-6.7,3.1-6.7,7v0.1c0,3.9,2.8,7.1,6.8,7.1
		C238.3,133.2,241.1,130.1,241.1,126.2z"/>
	<path class="st0" d="M248.8,116.2h8.9c2.5,0,4.5,0.7,5.7,2c1,1.1,1.7,2.6,1.7,4.3v0.1c0,3.3-2,5.2-4.7,6l5.4,7.5h-4.1l-4.9-6.9
		h-0.1h-4.3v6.9h-3.5L248.8,116.2L248.8,116.2z M257.5,126.1c2.5,0,4.1-1.3,4.1-3.3v-0.1c0-2.1-1.5-3.3-4.1-3.3h-5.1v6.7
		L257.5,126.1L257.5,126.1z"/>
	<path class="st0" d="M275.4,119.4h-6.3v-3.2h16.1v3.2h-6.3v16.6h-3.5V119.4L275.4,119.4z"/>
</g>
</svg>
